<mxfile host="app.diagrams.net" modified="2024-04-13T16:29:17.337Z" agent="Mozilla/5.0 (Windows NT 10.0; Win64; x64) AppleWebKit/537.36 (KHTML, like Gecko) Chrome/123.0.0.0 Safari/537.36" etag="5q36kpVRM0l8NXF4ScdV" version="24.2.5" type="device">
  <diagram id="C5RBs43oDa-KdzZeNtuy" name="Page-1">
    <mxGraphModel dx="5699" dy="2272" grid="1" gridSize="10" guides="1" tooltips="1" connect="1" arrows="1" fold="1" page="1" pageScale="1" pageWidth="827" pageHeight="1169" math="0" shadow="0">
      <root>
        <mxCell id="WIyWlLk6GJQsqaUBKTNV-0" />
        <mxCell id="WIyWlLk6GJQsqaUBKTNV-1" parent="WIyWlLk6GJQsqaUBKTNV-0" />
        <mxCell id="zkfFHV4jXpPFQw0GAbJ--0" value="Creator" style="swimlane;fontStyle=2;align=center;verticalAlign=top;childLayout=stackLayout;horizontal=1;startSize=26;horizontalStack=0;resizeParent=1;resizeLast=0;collapsible=1;marginBottom=0;rounded=0;shadow=0;strokeWidth=1;" parent="WIyWlLk6GJQsqaUBKTNV-1" vertex="1">
          <mxGeometry x="-960" y="-68" width="540" height="268" as="geometry">
            <mxRectangle x="230" y="140" width="160" height="26" as="alternateBounds" />
          </mxGeometry>
        </mxCell>
        <mxCell id="zkfFHV4jXpPFQw0GAbJ--2" value="-id: integer" style="text;align=left;verticalAlign=top;spacingLeft=4;spacingRight=4;overflow=hidden;rotatable=0;points=[[0,0.5],[1,0.5]];portConstraint=eastwest;rounded=0;shadow=0;html=0;" parent="zkfFHV4jXpPFQw0GAbJ--0" vertex="1">
          <mxGeometry y="26" width="540" height="26" as="geometry" />
        </mxCell>
        <mxCell id="CoTIpQ9t6RzYbhj9d1Ss-5" value="-fullName : string" style="text;align=left;verticalAlign=top;spacingLeft=4;spacingRight=4;overflow=hidden;rotatable=0;points=[[0,0.5],[1,0.5]];portConstraint=eastwest;rounded=0;shadow=0;html=0;" parent="zkfFHV4jXpPFQw0GAbJ--0" vertex="1">
          <mxGeometry y="52" width="540" height="26" as="geometry" />
        </mxCell>
        <mxCell id="b6Z24bB_RHppF1CcgeBB-2" value="-username : string" style="text;align=left;verticalAlign=top;spacingLeft=4;spacingRight=4;overflow=hidden;rotatable=0;points=[[0,0.5],[1,0.5]];portConstraint=eastwest;rounded=0;shadow=0;html=0;" parent="zkfFHV4jXpPFQw0GAbJ--0" vertex="1">
          <mxGeometry y="78" width="540" height="26" as="geometry" />
        </mxCell>
        <mxCell id="CoTIpQ9t6RzYbhj9d1Ss-6" value="-email : string" style="text;align=left;verticalAlign=top;spacingLeft=4;spacingRight=4;overflow=hidden;rotatable=0;points=[[0,0.5],[1,0.5]];portConstraint=eastwest;rounded=0;shadow=0;html=0;" parent="zkfFHV4jXpPFQw0GAbJ--0" vertex="1">
          <mxGeometry y="104" width="540" height="26" as="geometry" />
        </mxCell>
        <mxCell id="zkfFHV4jXpPFQw0GAbJ--3" value="-country : string" style="text;align=left;verticalAlign=top;spacingLeft=4;spacingRight=4;overflow=hidden;rotatable=0;points=[[0,0.5],[1,0.5]];portConstraint=eastwest;rounded=0;shadow=0;html=0;" parent="zkfFHV4jXpPFQw0GAbJ--0" vertex="1">
          <mxGeometry y="130" width="540" height="26" as="geometry" />
        </mxCell>
        <mxCell id="b6Z24bB_RHppF1CcgeBB-1" value="-birthDate : string&#xa;&#xa;&#xa;" style="text;align=left;verticalAlign=top;spacingLeft=4;spacingRight=4;overflow=hidden;rotatable=0;points=[[0,0.5],[1,0.5]];portConstraint=eastwest;rounded=0;shadow=0;html=0;" parent="zkfFHV4jXpPFQw0GAbJ--0" vertex="1">
          <mxGeometry y="156" width="540" height="26" as="geometry" />
        </mxCell>
        <mxCell id="yHEWQd_DedbdwMoRg4M3-0" value="-socialmedialink: string&#xa;&#xa;&#xa;" style="text;align=left;verticalAlign=top;spacingLeft=4;spacingRight=4;overflow=hidden;rotatable=0;points=[[0,0.5],[1,0.5]];portConstraint=eastwest;rounded=0;shadow=0;html=0;" parent="zkfFHV4jXpPFQw0GAbJ--0" vertex="1">
          <mxGeometry y="182" width="540" height="26" as="geometry" />
        </mxCell>
        <mxCell id="yHEWQd_DedbdwMoRg4M3-1" value="-description: string&#xa;&#xa;&#xa;" style="text;align=left;verticalAlign=top;spacingLeft=4;spacingRight=4;overflow=hidden;rotatable=0;points=[[0,0.5],[1,0.5]];portConstraint=eastwest;rounded=0;shadow=0;html=0;" parent="zkfFHV4jXpPFQw0GAbJ--0" vertex="1">
          <mxGeometry y="208" width="540" height="26" as="geometry" />
        </mxCell>
        <mxCell id="zkfFHV4jXpPFQw0GAbJ--4" value="" style="line;html=1;strokeWidth=1;align=left;verticalAlign=middle;spacingTop=-1;spacingLeft=3;spacingRight=3;rotatable=0;labelPosition=right;points=[];portConstraint=eastwest;" parent="zkfFHV4jXpPFQw0GAbJ--0" vertex="1">
          <mxGeometry y="234" width="540" height="8" as="geometry" />
        </mxCell>
        <mxCell id="zkfFHV4jXpPFQw0GAbJ--5" value="+Creator(id:integer, fullName : string, username: string, country: string, birthdate : string) : void" style="text;align=left;verticalAlign=top;spacingLeft=4;spacingRight=4;overflow=hidden;rotatable=0;points=[[0,0.5],[1,0.5]];portConstraint=eastwest;" parent="zkfFHV4jXpPFQw0GAbJ--0" vertex="1">
          <mxGeometry y="242" width="540" height="26" as="geometry" />
        </mxCell>
        <mxCell id="b6Z24bB_RHppF1CcgeBB-24" value="Song" style="swimlane;fontStyle=2;align=center;verticalAlign=top;childLayout=stackLayout;horizontal=1;startSize=26;horizontalStack=0;resizeParent=1;resizeLast=0;collapsible=1;marginBottom=0;rounded=0;shadow=0;strokeWidth=1;" parent="WIyWlLk6GJQsqaUBKTNV-1" vertex="1">
          <mxGeometry x="-929" y="710" width="380" height="170" as="geometry">
            <mxRectangle x="230" y="140" width="160" height="26" as="alternateBounds" />
          </mxGeometry>
        </mxCell>
        <mxCell id="b6Z24bB_RHppF1CcgeBB-25" value="-id: integer&#xa;" style="text;align=left;verticalAlign=top;spacingLeft=4;spacingRight=4;overflow=hidden;rotatable=0;points=[[0,0.5],[1,0.5]];portConstraint=eastwest;" parent="b6Z24bB_RHppF1CcgeBB-24" vertex="1">
          <mxGeometry y="26" width="380" height="26" as="geometry" />
        </mxCell>
        <mxCell id="b6Z24bB_RHppF1CcgeBB-46" value="-title: string&#xa;" style="text;align=left;verticalAlign=top;spacingLeft=4;spacingRight=4;overflow=hidden;rotatable=0;points=[[0,0.5],[1,0.5]];portConstraint=eastwest;" parent="b6Z24bB_RHppF1CcgeBB-24" vertex="1">
          <mxGeometry y="52" width="380" height="26" as="geometry" />
        </mxCell>
        <mxCell id="b6Z24bB_RHppF1CcgeBB-47" value="-length: integer" style="text;align=left;verticalAlign=top;spacingLeft=4;spacingRight=4;overflow=hidden;rotatable=0;points=[[0,0.5],[1,0.5]];portConstraint=eastwest;" parent="b6Z24bB_RHppF1CcgeBB-24" vertex="1">
          <mxGeometry y="78" width="380" height="26" as="geometry" />
        </mxCell>
        <mxCell id="b6Z24bB_RHppF1CcgeBB-92" value="-songUrl : string" style="text;align=left;verticalAlign=top;spacingLeft=4;spacingRight=4;overflow=hidden;rotatable=0;points=[[0,0.5],[1,0.5]];portConstraint=eastwest;" parent="b6Z24bB_RHppF1CcgeBB-24" vertex="1">
          <mxGeometry y="104" width="380" height="26" as="geometry" />
        </mxCell>
        <mxCell id="b6Z24bB_RHppF1CcgeBB-30" value="" style="line;html=1;strokeWidth=1;align=left;verticalAlign=middle;spacingTop=-1;spacingLeft=3;spacingRight=3;rotatable=0;labelPosition=right;points=[];portConstraint=eastwest;" parent="b6Z24bB_RHppF1CcgeBB-24" vertex="1">
          <mxGeometry y="130" width="380" height="8" as="geometry" />
        </mxCell>
        <mxCell id="b6Z24bB_RHppF1CcgeBB-31" value="+Song(id:integer, title:string, songUrl : string) : void" style="text;align=left;verticalAlign=top;spacingLeft=4;spacingRight=4;overflow=hidden;rotatable=0;points=[[0,0.5],[1,0.5]];portConstraint=eastwest;" parent="b6Z24bB_RHppF1CcgeBB-24" vertex="1">
          <mxGeometry y="138" width="380" height="26" as="geometry" />
        </mxCell>
        <mxCell id="b6Z24bB_RHppF1CcgeBB-59" value="Album" style="swimlane;fontStyle=2;align=center;verticalAlign=top;childLayout=stackLayout;horizontal=1;startSize=26;horizontalStack=0;resizeParent=1;resizeLast=0;collapsible=1;marginBottom=0;rounded=0;shadow=0;strokeWidth=1;" parent="WIyWlLk6GJQsqaUBKTNV-1" vertex="1">
          <mxGeometry x="-1040" y="330" width="602" height="280" as="geometry">
            <mxRectangle x="230" y="140" width="160" height="26" as="alternateBounds" />
          </mxGeometry>
        </mxCell>
        <mxCell id="b6Z24bB_RHppF1CcgeBB-60" value="-id: integer&#xa;" style="text;align=left;verticalAlign=top;spacingLeft=4;spacingRight=4;overflow=hidden;rotatable=0;points=[[0,0.5],[1,0.5]];portConstraint=eastwest;" parent="b6Z24bB_RHppF1CcgeBB-59" vertex="1">
          <mxGeometry y="26" width="602" height="26" as="geometry" />
        </mxCell>
        <mxCell id="b6Z24bB_RHppF1CcgeBB-61" value="-title: string&#xa;" style="text;align=left;verticalAlign=top;spacingLeft=4;spacingRight=4;overflow=hidden;rotatable=0;points=[[0,0.5],[1,0.5]];portConstraint=eastwest;" parent="b6Z24bB_RHppF1CcgeBB-59" vertex="1">
          <mxGeometry y="52" width="602" height="26" as="geometry" />
        </mxCell>
        <mxCell id="b6Z24bB_RHppF1CcgeBB-63" value="-releaseDate: string" style="text;align=left;verticalAlign=top;spacingLeft=4;spacingRight=4;overflow=hidden;rotatable=0;points=[[0,0.5],[1,0.5]];portConstraint=eastwest;" parent="b6Z24bB_RHppF1CcgeBB-59" vertex="1">
          <mxGeometry y="78" width="602" height="26" as="geometry" />
        </mxCell>
        <mxCell id="b6Z24bB_RHppF1CcgeBB-64" value="-genre: string" style="text;align=left;verticalAlign=top;spacingLeft=4;spacingRight=4;overflow=hidden;rotatable=0;points=[[0,0.5],[1,0.5]];portConstraint=eastwest;" parent="b6Z24bB_RHppF1CcgeBB-59" vertex="1">
          <mxGeometry y="104" width="602" height="26" as="geometry" />
        </mxCell>
        <mxCell id="b6Z24bB_RHppF1CcgeBB-65" value="-photoUrl: string" style="text;align=left;verticalAlign=top;spacingLeft=4;spacingRight=4;overflow=hidden;rotatable=0;points=[[0,0.5],[1,0.5]];portConstraint=eastwest;" parent="b6Z24bB_RHppF1CcgeBB-59" vertex="1">
          <mxGeometry y="130" width="602" height="26" as="geometry" />
        </mxCell>
        <mxCell id="b6Z24bB_RHppF1CcgeBB-88" value="-songs : Song[]" style="text;align=left;verticalAlign=top;spacingLeft=4;spacingRight=4;overflow=hidden;rotatable=0;points=[[0,0.5],[1,0.5]];portConstraint=eastwest;" parent="b6Z24bB_RHppF1CcgeBB-59" vertex="1">
          <mxGeometry y="156" width="602" height="26" as="geometry" />
        </mxCell>
        <mxCell id="b6Z24bB_RHppF1CcgeBB-66" value="" style="line;html=1;strokeWidth=1;align=left;verticalAlign=middle;spacingTop=-1;spacingLeft=3;spacingRight=3;rotatable=0;labelPosition=right;points=[];portConstraint=eastwest;" parent="b6Z24bB_RHppF1CcgeBB-59" vertex="1">
          <mxGeometry y="182" width="602" height="8" as="geometry" />
        </mxCell>
        <mxCell id="b6Z24bB_RHppF1CcgeBB-67" value="+Album(id:integer, title:string, releaseDate:string, genre: string, photoUrl:string, songs: Song[]) : void" style="text;align=left;verticalAlign=top;spacingLeft=4;spacingRight=4;overflow=hidden;rotatable=0;points=[[0,0.5],[1,0.5]];portConstraint=eastwest;" parent="b6Z24bB_RHppF1CcgeBB-59" vertex="1">
          <mxGeometry y="190" width="602" height="26" as="geometry" />
        </mxCell>
        <mxCell id="CoTIpQ9t6RzYbhj9d1Ss-1" value="+getNumberOfSongs() : integer" style="text;align=left;verticalAlign=top;spacingLeft=4;spacingRight=4;overflow=hidden;rotatable=0;points=[[0,0.5],[1,0.5]];portConstraint=eastwest;" parent="b6Z24bB_RHppF1CcgeBB-59" vertex="1">
          <mxGeometry y="216" width="602" height="26" as="geometry" />
        </mxCell>
        <mxCell id="b6Z24bB_RHppF1CcgeBB-80" value="+getLength() : integer" style="text;align=left;verticalAlign=top;spacingLeft=4;spacingRight=4;overflow=hidden;rotatable=0;points=[[0,0.5],[1,0.5]];portConstraint=eastwest;" parent="b6Z24bB_RHppF1CcgeBB-59" vertex="1">
          <mxGeometry y="242" width="602" height="26" as="geometry" />
        </mxCell>
        <mxCell id="b6Z24bB_RHppF1CcgeBB-106" value="&lt;&lt;interface&gt;&gt;&#xa;User" style="swimlane;fontStyle=2;align=center;verticalAlign=top;childLayout=stackLayout;horizontal=1;startSize=40;horizontalStack=0;resizeParent=1;resizeLast=0;collapsible=1;marginBottom=0;rounded=0;shadow=0;strokeWidth=1;" parent="WIyWlLk6GJQsqaUBKTNV-1" vertex="1">
          <mxGeometry x="-880" y="-370" width="380" height="178" as="geometry">
            <mxRectangle x="230" y="140" width="160" height="26" as="alternateBounds" />
          </mxGeometry>
        </mxCell>
        <mxCell id="b6Z24bB_RHppF1CcgeBB-107" value="-id: integer&#xa;" style="text;align=left;verticalAlign=top;spacingLeft=4;spacingRight=4;overflow=hidden;rotatable=0;points=[[0,0.5],[1,0.5]];portConstraint=eastwest;" parent="b6Z24bB_RHppF1CcgeBB-106" vertex="1">
          <mxGeometry y="40" width="380" height="26" as="geometry" />
        </mxCell>
        <mxCell id="CoTIpQ9t6RzYbhj9d1Ss-2" value="-username : string" style="text;align=left;verticalAlign=top;spacingLeft=4;spacingRight=4;overflow=hidden;rotatable=0;points=[[0,0.5],[1,0.5]];portConstraint=eastwest;" parent="b6Z24bB_RHppF1CcgeBB-106" vertex="1">
          <mxGeometry y="66" width="380" height="26" as="geometry" />
        </mxCell>
        <mxCell id="CoTIpQ9t6RzYbhj9d1Ss-3" value="-fullname: string" style="text;align=left;verticalAlign=top;spacingLeft=4;spacingRight=4;overflow=hidden;rotatable=0;points=[[0,0.5],[1,0.5]];portConstraint=eastwest;" parent="b6Z24bB_RHppF1CcgeBB-106" vertex="1">
          <mxGeometry y="92" width="380" height="26" as="geometry" />
        </mxCell>
        <mxCell id="CoTIpQ9t6RzYbhj9d1Ss-4" value="-email : string" style="text;align=left;verticalAlign=top;spacingLeft=4;spacingRight=4;overflow=hidden;rotatable=0;points=[[0,0.5],[1,0.5]];portConstraint=eastwest;" parent="b6Z24bB_RHppF1CcgeBB-106" vertex="1">
          <mxGeometry y="118" width="380" height="26" as="geometry" />
        </mxCell>
        <mxCell id="b6Z24bB_RHppF1CcgeBB-111" value="" style="line;html=1;strokeWidth=1;align=left;verticalAlign=middle;spacingTop=-1;spacingLeft=3;spacingRight=3;rotatable=0;labelPosition=right;points=[];portConstraint=eastwest;" parent="b6Z24bB_RHppF1CcgeBB-106" vertex="1">
          <mxGeometry y="144" width="380" height="8" as="geometry" />
        </mxCell>
        <mxCell id="b6Z24bB_RHppF1CcgeBB-128" value="" style="endArrow=block;endSize=16;endFill=0;html=1;rounded=0;entryX=0.5;entryY=1;entryDx=0;entryDy=0;exitX=0.5;exitY=0;exitDx=0;exitDy=0;" parent="WIyWlLk6GJQsqaUBKTNV-1" source="zkfFHV4jXpPFQw0GAbJ--0" target="b6Z24bB_RHppF1CcgeBB-106" edge="1">
          <mxGeometry width="160" relative="1" as="geometry">
            <mxPoint x="200" y="-10" as="sourcePoint" />
            <mxPoint x="360" y="-10" as="targetPoint" />
          </mxGeometry>
        </mxCell>
        <mxCell id="Z4VPV57AkCMLWm3dTfKw-1" value="&lt;p style=&quot;margin:0px;margin-top:4px;text-align:center;&quot;&gt;&lt;b&gt;AlbumRepository&lt;/b&gt;&lt;/p&gt;&lt;hr size=&quot;1&quot; style=&quot;border-style:solid;&quot;&gt;&lt;p style=&quot;margin:0px;margin-left:4px;&quot;&gt;- databaseConnection&lt;br&gt;&lt;/p&gt;&lt;hr size=&quot;1&quot; style=&quot;border-style:solid;&quot;&gt;&lt;p style=&quot;margin: 0px 0px 0px 4px;&quot;&gt;+&amp;nbsp;&lt;span style=&quot;text-align: center;&quot;&gt;AlbumRepository&lt;/span&gt;(): void&lt;/p&gt;&lt;p style=&quot;margin:0px;margin-left:4px;&quot;&gt;&lt;span style=&quot;background-color: initial;&quot;&gt;+ addAlbum(album : Album): void&lt;/span&gt;&lt;br&gt;&lt;/p&gt;&lt;p style=&quot;margin:0px;margin-left:4px;&quot;&gt;+ deleteAlbum(albumId : integer) : void&lt;/p&gt;&lt;p style=&quot;margin:0px;margin-left:4px;&quot;&gt;+ getAllAlbumsByCreator(creatorId : integer) : Album[]&lt;/p&gt;&lt;p style=&quot;margin:0px;margin-left:4px;&quot;&gt;+ getAlbumById(albumId : integer) : Album&lt;/p&gt;" style="verticalAlign=top;align=left;overflow=fill;html=1;whiteSpace=wrap;" parent="WIyWlLk6GJQsqaUBKTNV-1" vertex="1">
          <mxGeometry x="-1560" y="320" width="310" height="140" as="geometry" />
        </mxCell>
        <mxCell id="Z4VPV57AkCMLWm3dTfKw-23" value="StatisticsService" style="swimlane;fontStyle=2;align=center;verticalAlign=top;childLayout=stackLayout;horizontal=1;startSize=26;horizontalStack=0;resizeParent=1;resizeLast=0;collapsible=1;marginBottom=0;rounded=0;shadow=0;strokeWidth=1;" parent="WIyWlLk6GJQsqaUBKTNV-1" vertex="1">
          <mxGeometry x="-1590" y="-290" width="370" height="200" as="geometry">
            <mxRectangle x="230" y="140" width="160" height="26" as="alternateBounds" />
          </mxGeometry>
        </mxCell>
        <mxCell id="Z4VPV57AkCMLWm3dTfKw-46" value="- databaseConnection" style="text;align=left;verticalAlign=top;spacingLeft=4;spacingRight=4;overflow=hidden;rotatable=0;points=[[0,0.5],[1,0.5]];portConstraint=eastwest;" parent="Z4VPV57AkCMLWm3dTfKw-23" vertex="1">
          <mxGeometry y="26" width="370" height="24" as="geometry" />
        </mxCell>
        <mxCell id="Z4VPV57AkCMLWm3dTfKw-25" value="" style="line;html=1;strokeWidth=1;align=left;verticalAlign=middle;spacingTop=-1;spacingLeft=3;spacingRight=3;rotatable=0;labelPosition=right;points=[];portConstraint=eastwest;" parent="Z4VPV57AkCMLWm3dTfKw-23" vertex="1">
          <mxGeometry y="50" width="370" height="16" as="geometry" />
        </mxCell>
        <mxCell id="Z4VPV57AkCMLWm3dTfKw-26" value="+StatisticsService(creator : Creator) : void" style="text;align=left;verticalAlign=top;spacingLeft=4;spacingRight=4;overflow=hidden;rotatable=0;points=[[0,0.5],[1,0.5]];portConstraint=eastwest;" parent="Z4VPV57AkCMLWm3dTfKw-23" vertex="1">
          <mxGeometry y="66" width="370" height="26" as="geometry" />
        </mxCell>
        <mxCell id="b6Z24bB_RHppF1CcgeBB-85" value="+getGlobalNumberOfSaves(creatorId : integer) : integer" style="text;align=left;verticalAlign=top;spacingLeft=4;spacingRight=4;overflow=hidden;rotatable=0;points=[[0,0.5],[1,0.5]];portConstraint=eastwest;" parent="Z4VPV57AkCMLWm3dTfKw-23" vertex="1">
          <mxGeometry y="92" width="370" height="26" as="geometry" />
        </mxCell>
        <mxCell id="b6Z24bB_RHppF1CcgeBB-95" value="+getGlobalNumberOfShares(creatorId : integer) : integer" style="text;align=left;verticalAlign=top;spacingLeft=4;spacingRight=4;overflow=hidden;rotatable=0;points=[[0,0.5],[1,0.5]];portConstraint=eastwest;" parent="Z4VPV57AkCMLWm3dTfKw-23" vertex="1">
          <mxGeometry y="118" width="370" height="26" as="geometry" />
        </mxCell>
        <mxCell id="b6Z24bB_RHppF1CcgeBB-84" value="+getGlobalNumberOfStreams(creatorId : integer) : integer" style="text;align=left;verticalAlign=top;spacingLeft=4;spacingRight=4;overflow=hidden;rotatable=0;points=[[0,0.5],[1,0.5]];portConstraint=eastwest;" parent="Z4VPV57AkCMLWm3dTfKw-23" vertex="1">
          <mxGeometry y="144" width="370" height="26" as="geometry" />
        </mxCell>
        <mxCell id="b6Z24bB_RHppF1CcgeBB-96" value="+getGlobalNumberOfPlaylistsAdded(creatorId : integer) : integer" style="text;align=left;verticalAlign=top;spacingLeft=4;spacingRight=4;overflow=hidden;rotatable=0;points=[[0,0.5],[1,0.5]];portConstraint=eastwest;" parent="Z4VPV57AkCMLWm3dTfKw-23" vertex="1">
          <mxGeometry y="170" width="370" height="26" as="geometry" />
        </mxCell>
        <mxCell id="Z4VPV57AkCMLWm3dTfKw-31" value="&lt;p style=&quot;margin:0px;margin-top:4px;text-align:center;&quot;&gt;&lt;b&gt;CreatorRepository&lt;/b&gt;&lt;/p&gt;&lt;hr size=&quot;1&quot; style=&quot;border-style:solid;&quot;&gt;&lt;p style=&quot;margin:0px;margin-left:4px;&quot;&gt;- databaseConnection&lt;/p&gt;&lt;hr size=&quot;1&quot; style=&quot;border-style:solid;&quot;&gt;&lt;p style=&quot;margin:0px;margin-left:4px;&quot;&gt;+&amp;nbsp;&lt;span style=&quot;text-align: center;&quot;&gt;CreatorRepository&lt;/span&gt;(): void&lt;/p&gt;&lt;p style=&quot;margin:0px;margin-left:4px;&quot;&gt;+ addCreator(creator : Creator) : void&lt;/p&gt;&lt;p style=&quot;margin:0px;margin-left:4px;&quot;&gt;+ deleteCreator(albumId : integer) : void&lt;/p&gt;&lt;p style=&quot;margin:0px;margin-left:4px;&quot;&gt;+ getCreatorById(id : integer) : Creator&lt;/p&gt;" style="verticalAlign=top;align=left;overflow=fill;html=1;whiteSpace=wrap;" parent="WIyWlLk6GJQsqaUBKTNV-1" vertex="1">
          <mxGeometry x="-1560" y="15" width="310" height="120" as="geometry" />
        </mxCell>
        <mxCell id="Z4VPV57AkCMLWm3dTfKw-33" value="&lt;p style=&quot;margin:0px;margin-top:4px;text-align:center;&quot;&gt;&lt;b&gt;SongRepository&lt;/b&gt;&lt;/p&gt;&lt;hr size=&quot;1&quot; style=&quot;border-style:solid;&quot;&gt;&lt;p style=&quot;margin:0px;margin-left:4px;&quot;&gt;- databaseConnection&lt;br&gt;&lt;/p&gt;&lt;hr size=&quot;1&quot; style=&quot;border-style:solid;&quot;&gt;&lt;p style=&quot;margin: 0px 0px 0px 4px;&quot;&gt;+ Song&lt;span style=&quot;text-align: center;&quot;&gt;Repository&lt;/span&gt;(): void&lt;/p&gt;&lt;p style=&quot;margin:0px;margin-left:4px;&quot;&gt;&lt;span style=&quot;background-color: initial;&quot;&gt;+ add&lt;/span&gt;Song&lt;span style=&quot;background-color: initial;&quot;&gt;(album :&amp;nbsp;&lt;/span&gt;Song&lt;span style=&quot;background-color: initial;&quot;&gt;): void&lt;/span&gt;&lt;/p&gt;&lt;p style=&quot;margin:0px;margin-left:4px;&quot;&gt;+ getSongById(songId : integer) : Song&lt;/p&gt;&lt;p style=&quot;margin:0px;margin-left:4px;&quot;&gt;+ getSongsFromAlbum(albumId : integer) : Song[]&lt;/p&gt;&lt;p style=&quot;margin:0px;margin-left:4px;&quot;&gt;&lt;span style=&quot;text-wrap: nowrap;&quot;&gt;+getNumberOfStreams(songId : integer) : integer&lt;/span&gt;&lt;br&gt;&lt;/p&gt;&lt;p style=&quot;margin:0px;margin-left:4px;&quot;&gt;&lt;span style=&quot;text-wrap: nowrap;&quot;&gt;+getNumberOfSaves(songId : integer) : integer&lt;/span&gt;&lt;span style=&quot;text-wrap: nowrap;&quot;&gt;&lt;br&gt;&lt;/span&gt;&lt;/p&gt;&lt;p style=&quot;margin:0px;margin-left:4px;&quot;&gt;&lt;span style=&quot;text-wrap: nowrap;&quot;&gt;+getNumberOfShares(songId : integer) : integer&lt;/span&gt;&lt;span style=&quot;text-wrap: nowrap;&quot;&gt;&lt;br&gt;&lt;/span&gt;&lt;/p&gt;&lt;p style=&quot;margin:0px;margin-left:4px;&quot;&gt;&lt;span style=&quot;text-wrap: nowrap;&quot;&gt;+getNumberOfPlaylistsAdded(songId : integer) : integer&lt;/span&gt;&lt;span style=&quot;text-wrap: nowrap;&quot;&gt;&lt;br&gt;&lt;/span&gt;&lt;/p&gt;" style="verticalAlign=top;align=left;overflow=fill;html=1;whiteSpace=wrap;" parent="WIyWlLk6GJQsqaUBKTNV-1" vertex="1">
          <mxGeometry x="-1570" y="600" width="310" height="183.5" as="geometry" />
        </mxCell>
        <mxCell id="Z4VPV57AkCMLWm3dTfKw-50" value="" style="endArrow=open;endFill=1;endSize=12;html=1;rounded=0;entryX=1;entryY=0.5;entryDx=0;entryDy=0;exitX=0;exitY=0.5;exitDx=0;exitDy=0;" parent="WIyWlLk6GJQsqaUBKTNV-1" source="CoTIpQ9t6RzYbhj9d1Ss-5" target="b6Z24bB_RHppF1CcgeBB-85" edge="1">
          <mxGeometry width="160" relative="1" as="geometry">
            <mxPoint x="310" y="701" as="sourcePoint" />
            <mxPoint x="460" y="810" as="targetPoint" />
          </mxGeometry>
        </mxCell>
        <mxCell id="yHEWQd_DedbdwMoRg4M3-2" value="" style="endArrow=classic;html=1;rounded=0;entryX=0;entryY=0.5;entryDx=0;entryDy=0;" parent="WIyWlLk6GJQsqaUBKTNV-1" source="Z4VPV57AkCMLWm3dTfKw-1" target="b6Z24bB_RHppF1CcgeBB-61" edge="1">
          <mxGeometry width="50" height="50" relative="1" as="geometry">
            <mxPoint x="-760" y="850" as="sourcePoint" />
            <mxPoint x="-710" y="800" as="targetPoint" />
          </mxGeometry>
        </mxCell>
        <mxCell id="yHEWQd_DedbdwMoRg4M3-3" value="" style="endArrow=classic;html=1;rounded=0;entryX=0;entryY=0.5;entryDx=0;entryDy=0;exitX=1;exitY=0.5;exitDx=0;exitDy=0;" parent="WIyWlLk6GJQsqaUBKTNV-1" source="Z4VPV57AkCMLWm3dTfKw-33" target="b6Z24bB_RHppF1CcgeBB-47" edge="1">
          <mxGeometry width="50" height="50" relative="1" as="geometry">
            <mxPoint x="-800" y="870" as="sourcePoint" />
            <mxPoint x="-860" y="940" as="targetPoint" />
          </mxGeometry>
        </mxCell>
        <mxCell id="yHEWQd_DedbdwMoRg4M3-4" value="" style="endArrow=classic;html=1;rounded=0;exitX=1;exitY=0.5;exitDx=0;exitDy=0;entryX=0;entryY=0.5;entryDx=0;entryDy=0;" parent="WIyWlLk6GJQsqaUBKTNV-1" source="Z4VPV57AkCMLWm3dTfKw-31" target="zkfFHV4jXpPFQw0GAbJ--3" edge="1">
          <mxGeometry width="50" height="50" relative="1" as="geometry">
            <mxPoint x="345" y="607" as="sourcePoint" />
            <mxPoint x="-1010" y="60" as="targetPoint" />
          </mxGeometry>
        </mxCell>
        <mxCell id="yHEWQd_DedbdwMoRg4M3-5" value="" style="endArrow=none;html=1;rounded=0;entryX=0.5;entryY=0;entryDx=0;entryDy=0;exitX=0.498;exitY=1.051;exitDx=0;exitDy=0;exitPerimeter=0;" parent="WIyWlLk6GJQsqaUBKTNV-1" source="zkfFHV4jXpPFQw0GAbJ--5" target="b6Z24bB_RHppF1CcgeBB-59" edge="1">
          <mxGeometry width="50" height="50" relative="1" as="geometry">
            <mxPoint x="-140" y="740" as="sourcePoint" />
            <mxPoint x="-90" y="690" as="targetPoint" />
          </mxGeometry>
        </mxCell>
        <mxCell id="yHEWQd_DedbdwMoRg4M3-7" value="" style="endArrow=classic;html=1;rounded=0;entryX=0.5;entryY=0;entryDx=0;entryDy=0;exitX=0.5;exitY=1;exitDx=0;exitDy=0;" parent="WIyWlLk6GJQsqaUBKTNV-1" source="b6Z24bB_RHppF1CcgeBB-59" target="b6Z24bB_RHppF1CcgeBB-24" edge="1">
          <mxGeometry width="50" height="50" relative="1" as="geometry">
            <mxPoint x="-595" y="370" as="sourcePoint" />
            <mxPoint x="-619" y="470" as="targetPoint" />
          </mxGeometry>
        </mxCell>
        <mxCell id="yHEWQd_DedbdwMoRg4M3-8" value="1" style="edgeLabel;html=1;align=center;verticalAlign=middle;resizable=0;points=[];" parent="yHEWQd_DedbdwMoRg4M3-7" vertex="1" connectable="0">
          <mxGeometry x="-0.7506" y="-2" relative="1" as="geometry">
            <mxPoint as="offset" />
          </mxGeometry>
        </mxCell>
        <mxCell id="yHEWQd_DedbdwMoRg4M3-9" value="0..*" style="edgeLabel;html=1;align=center;verticalAlign=middle;resizable=0;points=[];" parent="yHEWQd_DedbdwMoRg4M3-7" vertex="1" connectable="0">
          <mxGeometry x="0.4869" y="-2" relative="1" as="geometry">
            <mxPoint as="offset" />
          </mxGeometry>
        </mxCell>
        <mxCell id="EEu47VnWdVZj4ScJlk7P-2" style="edgeStyle=orthogonalEdgeStyle;rounded=0;orthogonalLoop=1;jettySize=auto;html=1;" parent="WIyWlLk6GJQsqaUBKTNV-1" source="EEu47VnWdVZj4ScJlk7P-0" target="Z4VPV57AkCMLWm3dTfKw-1" edge="1">
          <mxGeometry relative="1" as="geometry" />
        </mxCell>
        <mxCell id="EEu47VnWdVZj4ScJlk7P-0" value="&lt;p style=&quot;margin:0px;margin-top:4px;text-align:center;&quot;&gt;&lt;b&gt;AlbumService&lt;/b&gt;&lt;/p&gt;&lt;hr size=&quot;1&quot; style=&quot;border-style:solid;&quot;&gt;&lt;p style=&quot;margin:0px;margin-left:4px;&quot;&gt;- albumRepo&lt;br&gt;&lt;/p&gt;&lt;hr size=&quot;1&quot; style=&quot;border-style:solid;&quot;&gt;&lt;p style=&quot;margin: 0px 0px 0px 4px;&quot;&gt;+&amp;nbsp;&lt;span style=&quot;text-align: center;&quot;&gt;AlbumService&lt;/span&gt;(): void&lt;/p&gt;&lt;p style=&quot;margin:0px;margin-left:4px;&quot;&gt;&lt;span style=&quot;background-color: initial;&quot;&gt;+ addAlbum(album : Album): void&lt;/span&gt;&lt;br&gt;&lt;/p&gt;&lt;p style=&quot;margin:0px;margin-left:4px;&quot;&gt;+ deleteAlbum(albumId : integer) : void&lt;/p&gt;&lt;p style=&quot;margin:0px;margin-left:4px;&quot;&gt;+ getAllAlbumsByCreator(creatorId : integer) : Album[]&lt;/p&gt;&lt;p style=&quot;margin:0px;margin-left:4px;&quot;&gt;+ getAlbumById(albumId : integer) : Album&lt;/p&gt;" style="verticalAlign=top;align=left;overflow=fill;html=1;whiteSpace=wrap;" parent="WIyWlLk6GJQsqaUBKTNV-1" vertex="1">
          <mxGeometry x="-2060" y="320" width="310" height="140" as="geometry" />
        </mxCell>
        <mxCell id="EEu47VnWdVZj4ScJlk7P-7" style="edgeStyle=orthogonalEdgeStyle;rounded=0;orthogonalLoop=1;jettySize=auto;html=1;entryX=0;entryY=0.5;entryDx=0;entryDy=0;" parent="WIyWlLk6GJQsqaUBKTNV-1" source="EEu47VnWdVZj4ScJlk7P-4" target="Z4VPV57AkCMLWm3dTfKw-33" edge="1">
          <mxGeometry relative="1" as="geometry" />
        </mxCell>
        <mxCell id="EEu47VnWdVZj4ScJlk7P-4" value="&lt;p style=&quot;margin:0px;margin-top:4px;text-align:center;&quot;&gt;&lt;b&gt;SongService&lt;/b&gt;&lt;/p&gt;&lt;hr size=&quot;1&quot; style=&quot;border-style:solid;&quot;&gt;&lt;p style=&quot;margin:0px;margin-left:4px;&quot;&gt;- songRepo&lt;br&gt;&lt;/p&gt;&lt;hr size=&quot;1&quot; style=&quot;border-style:solid;&quot;&gt;&lt;p style=&quot;margin: 0px 0px 0px 4px;&quot;&gt;+ SongService(): void&lt;/p&gt;&lt;p style=&quot;margin:0px;margin-left:4px;&quot;&gt;&lt;span style=&quot;background-color: initial;&quot;&gt;+ add&lt;/span&gt;Song&lt;span style=&quot;background-color: initial;&quot;&gt;(album :&amp;nbsp;&lt;/span&gt;Song&lt;span style=&quot;background-color: initial;&quot;&gt;): void&lt;/span&gt;&lt;/p&gt;&lt;p style=&quot;margin:0px;margin-left:4px;&quot;&gt;+ getSongById(songId : integer) : Song&lt;/p&gt;&lt;p style=&quot;margin:0px;margin-left:4px;&quot;&gt;+ getSongsFromAlbum(albumId : integer) : Song[]&lt;/p&gt;&lt;p style=&quot;margin:0px;margin-left:4px;&quot;&gt;&lt;span style=&quot;text-wrap: nowrap;&quot;&gt;+getNumberOfStreams(songId : integer) : integer&lt;/span&gt;&lt;br&gt;&lt;/p&gt;&lt;p style=&quot;margin:0px;margin-left:4px;&quot;&gt;&lt;span style=&quot;text-wrap: nowrap;&quot;&gt;+getNumberOfSaves(songId : integer) : integer&lt;/span&gt;&lt;span style=&quot;text-wrap: nowrap;&quot;&gt;&lt;br&gt;&lt;/span&gt;&lt;/p&gt;&lt;p style=&quot;margin:0px;margin-left:4px;&quot;&gt;&lt;span style=&quot;text-wrap: nowrap;&quot;&gt;+getNumberOfShares(songId : integer) : integer&lt;/span&gt;&lt;span style=&quot;text-wrap: nowrap;&quot;&gt;&lt;br&gt;&lt;/span&gt;&lt;/p&gt;&lt;p style=&quot;margin:0px;margin-left:4px;&quot;&gt;&lt;span style=&quot;text-wrap: nowrap;&quot;&gt;+getNumberOfPlaylistsAdded(songId : integer) : integer&lt;/span&gt;&lt;span style=&quot;text-wrap: nowrap;&quot;&gt;&lt;br&gt;&lt;/span&gt;&lt;/p&gt;" style="verticalAlign=top;align=left;overflow=fill;html=1;whiteSpace=wrap;" parent="WIyWlLk6GJQsqaUBKTNV-1" vertex="1">
          <mxGeometry x="-2060" y="600" width="310" height="183.5" as="geometry" />
        </mxCell>
        <mxCell id="EEu47VnWdVZj4ScJlk7P-8" value="&lt;p style=&quot;margin:0px;margin-top:4px;text-align:center;&quot;&gt;&lt;b&gt;CreatorService&lt;/b&gt;&lt;/p&gt;&lt;hr size=&quot;1&quot; style=&quot;border-style:solid;&quot;&gt;&lt;p style=&quot;margin:0px;margin-left:4px;&quot;&gt;- creatorRepo&lt;/p&gt;&lt;hr size=&quot;1&quot; style=&quot;border-style:solid;&quot;&gt;&lt;p style=&quot;margin:0px;margin-left:4px;&quot;&gt;+&amp;nbsp;&lt;span style=&quot;text-align: center;&quot;&gt;CreatorRepository&lt;/span&gt;(): void&lt;/p&gt;&lt;p style=&quot;margin:0px;margin-left:4px;&quot;&gt;+ addCreator(creator : Creator) : void&lt;/p&gt;&lt;p style=&quot;margin:0px;margin-left:4px;&quot;&gt;+ deleteCreator(albumId : integer) : void&lt;/p&gt;&lt;p style=&quot;margin:0px;margin-left:4px;&quot;&gt;+ getCreatorById(id : integer) : Creator&lt;/p&gt;" style="verticalAlign=top;align=left;overflow=fill;html=1;whiteSpace=wrap;" parent="WIyWlLk6GJQsqaUBKTNV-1" vertex="1">
          <mxGeometry x="-2060" y="15" width="310" height="120" as="geometry" />
        </mxCell>
        <mxCell id="EEu47VnWdVZj4ScJlk7P-11" value="" style="endArrow=classic;html=1;rounded=0;exitX=1;exitY=0.5;exitDx=0;exitDy=0;entryX=0;entryY=0.5;entryDx=0;entryDy=0;" parent="WIyWlLk6GJQsqaUBKTNV-1" source="EEu47VnWdVZj4ScJlk7P-8" target="Z4VPV57AkCMLWm3dTfKw-31" edge="1">
          <mxGeometry width="50" height="50" relative="1" as="geometry">
            <mxPoint x="-1740" y="70" as="sourcePoint" />
            <mxPoint x="-1570" y="70" as="targetPoint" />
          </mxGeometry>
        </mxCell>
        <mxCell id="EEu47VnWdVZj4ScJlk7P-12" value="&lt;p style=&quot;margin:0px;margin-top:4px;text-align:center;&quot;&gt;&lt;b&gt;Presentation&lt;/b&gt;&lt;/p&gt;&lt;hr size=&quot;1&quot; style=&quot;border-style:solid;&quot;&gt;&lt;p style=&quot;margin:0px;margin-left:4px;&quot;&gt;-AlbumService()&lt;/p&gt;&lt;p style=&quot;margin:0px;margin-left:4px;&quot;&gt;-SongService()&lt;/p&gt;&lt;p style=&quot;margin:0px;margin-left:4px;&quot;&gt;-CreatorService()&lt;/p&gt;&lt;hr size=&quot;1&quot; style=&quot;border-style:solid;&quot;&gt;&lt;p style=&quot;margin:0px;margin-left:4px;&quot;&gt;+&amp;nbsp;&lt;span style=&quot;text-align: center;&quot;&gt;Presentation&lt;/span&gt;(): void&lt;/p&gt;&lt;p style=&quot;margin:0px;margin-left:4px;&quot;&gt;+ addCreator(creator : Creator) : void&lt;/p&gt;&lt;p style=&quot;margin:0px;margin-left:4px;&quot;&gt;+ deleteCreator(albumId : integer) : void&lt;/p&gt;&lt;p style=&quot;margin:0px;margin-left:4px;&quot;&gt;+ addAlbum(album : Album): void&lt;br&gt;&lt;/p&gt;&lt;p style=&quot;margin:0px;margin-left:4px;&quot;&gt;&lt;span style=&quot;background-color: initial;&quot;&gt;+ add&lt;/span&gt;Song&lt;span style=&quot;background-color: initial;&quot;&gt;(album :&amp;nbsp;&lt;/span&gt;Song&lt;span style=&quot;background-color: initial;&quot;&gt;): void&lt;/span&gt;&lt;br&gt;&lt;/p&gt;&lt;p style=&quot;margin: 0px 0px 0px 4px;&quot;&gt;+ deleteAlbum(albumId : integer) : void&lt;/p&gt;&lt;p style=&quot;margin:0px;margin-left:4px;&quot;&gt;+ Statistics() :&amp;nbsp;&lt;/p&gt;" style="verticalAlign=top;align=left;overflow=fill;html=1;whiteSpace=wrap;" parent="WIyWlLk6GJQsqaUBKTNV-1" vertex="1">
          <mxGeometry x="-2600" y="200" width="310" height="360" as="geometry" />
        </mxCell>
        <mxCell id="EEu47VnWdVZj4ScJlk7P-14" style="edgeStyle=orthogonalEdgeStyle;rounded=0;orthogonalLoop=1;jettySize=auto;html=1;exitX=1;exitY=0.5;exitDx=0;exitDy=0;entryX=0;entryY=0.426;entryDx=0;entryDy=0;entryPerimeter=0;" parent="WIyWlLk6GJQsqaUBKTNV-1" source="EEu47VnWdVZj4ScJlk7P-12" target="EEu47VnWdVZj4ScJlk7P-0" edge="1">
          <mxGeometry relative="1" as="geometry" />
        </mxCell>
        <mxCell id="EEu47VnWdVZj4ScJlk7P-17" value="" style="endArrow=classic;html=1;rounded=0;entryX=-0.015;entryY=0.469;entryDx=0;entryDy=0;entryPerimeter=0;" parent="WIyWlLk6GJQsqaUBKTNV-1" target="EEu47VnWdVZj4ScJlk7P-8" edge="1">
          <mxGeometry width="50" height="50" relative="1" as="geometry">
            <mxPoint x="-2290" y="380" as="sourcePoint" />
            <mxPoint x="-2170" y="220" as="targetPoint" />
          </mxGeometry>
        </mxCell>
        <mxCell id="EEu47VnWdVZj4ScJlk7P-18" value="" style="endArrow=classic;html=1;rounded=0;exitX=1;exitY=0.5;exitDx=0;exitDy=0;entryX=-0.01;entryY=0.552;entryDx=0;entryDy=0;entryPerimeter=0;" parent="WIyWlLk6GJQsqaUBKTNV-1" source="EEu47VnWdVZj4ScJlk7P-12" target="EEu47VnWdVZj4ScJlk7P-4" edge="1">
          <mxGeometry width="50" height="50" relative="1" as="geometry">
            <mxPoint x="-2220" y="350" as="sourcePoint" />
            <mxPoint x="-2170" y="300" as="targetPoint" />
            <Array as="points" />
          </mxGeometry>
        </mxCell>
      </root>
    </mxGraphModel>
  </diagram>
</mxfile>
